# xmcd
#
# Track frame offsets:
#	150
#	14107
#	30863
#	46625
#	59728
#	76144
#	90971
#	104870
#	131499
#	144805
#	162094
#	170324
#	183205
#	198816
#	209678
#	234176
#	285527
#	301773
#	322310
#
# Disc length: 4617 seconds
#
# Revision: 0
# Processed by: cddbd v1.5.2PL0 Copyright (c) Steve Scherf et al.
# Submitted via: EZCDAudioConverter 7.0.6.1
#
DISCID=f5120713
DTITLE=Fairport Convention - Come All Ye 1/7
DYEAR=1900
DGENRE=
TTITLE0=Time Will Show The Wiser
TTITLE1=Decameron
TTITLE2=Jack O' Diamonds
TTITLE3=One Sure Thing
TTITLE4=I Don't Know Where I Stand [BBC Session]
TTITLE5=You Never Wanted Me [BBC Session]
TTITLE6=Fotheringay
TTITLE7=I'll Keep It With Mine
TTITLE8=Mr. Lacey [Sandy Solo Vocal Version]
TTITLE9=Eastern Rain [Sandy Solo Vocal Version]
TTITLE10=Nottamun Town [A Cappella]
TTITLE11=Meet On The Ledge
TTITLE12=Throwaway Street Puzzle
TTITLE13=Reno Nevada [BBC Session]
TTITLE14=Suzanne [BBC Session]
TTITLE15=A Sailor's Life [First Version without Swarb]
TTITLE16=Genesis Hall
TTITLE17=Autopsy [Alternate Take]
TTITLE18=Who Knows Where The Time Goes? [Alternate Take]
EXTD=
EXTT0=
EXTT1=
EXTT2=
EXTT3=
EXTT4=
EXTT5=
EXTT6=
EXTT7=
EXTT8=
EXTT9=
EXTT10=
EXTT11=
EXTT12=
EXTT13=
EXTT14=
EXTT15=
EXTT16=
EXTT17=
EXTT18=
PLAYORDER=
